<?xml version="1.0" encoding="UTF-8"?>
<svg version="1.1" xmlns="http://www.w3.org/2000/svg" width="4000" height="4000">
<path d="M0 0 C2.05436819 -0.00050953 4.10873658 -0.0027699 6.1631012 -0.00663757 C11.71013546 -0.01203072 17.25683242 0.00728121 22.8038063 0.03146338 C28.61683326 0.05283278 34.42985993 0.05216742 40.24291992 0.05415344 C49.99387382 0.06058817 59.74470167 0.08179259 69.49560547 0.11328125 C82.01647752 0.15366145 94.53726775 0.17098458 107.05819702 0.18059063 C117.82842574 0.18888561 128.59863711 0.20611751 139.36885071 0.22562814 C141.67991586 0.22967757 143.99098158 0.23341706 146.30204773 0.2368505 C152.88299618 0.24663014 159.46389556 0.26110887 166.04481316 0.2836895 C168.03948459 0.28981509 170.03416197 0.29426352 172.02884102 0.29693222 C174.74623543 0.30090969 177.46353801 0.31102367 180.1809082 0.32279968 C180.97427959 0.32261532 181.76765099 0.32243096 182.58506393 0.32224101 C186.08217871 0.34363784 189.14389322 0.61621055 192.515625 1.4699707 C195.02025744 1.58582296 197.50238456 1.65518709 200.0078125 1.6809082 C201.52198635 1.70639308 203.03614634 1.73271163 204.55029297 1.75976562 C205.34062927 1.77300873 206.13096558 1.78625183 206.94525146 1.79989624 C252.89002799 2.6467755 298.2903681 14.48275252 333.515625 45.4699707 C334.32 46.16477539 335.124375 46.85958008 335.953125 47.57543945 C373.95748944 81.01197163 397.91314529 126.60952492 401.515625 177.4699707 C401.64142089 181.2147807 401.64697608 184.95467978 401.63587952 188.70133972 C401.63716115 190.31414848 401.63716115 190.31414848 401.63846868 191.95953923 C401.64010484 195.53228835 401.63463286 199.10498964 401.62915039 202.67773438 C401.62886809 205.25075276 401.62902709 207.82377122 401.6295929 210.39678955 C401.63011522 215.92091039 401.62699899 221.44501934 401.62135506 226.96913719 C401.6132004 234.95591434 401.61062078 242.94268578 401.60936707 250.92946664 C401.60718276 263.88999273 401.60053956 276.8505125 401.59106445 289.81103516 C401.58187423 302.39501921 401.57480128 314.97900154 401.57055664 327.56298828 C401.57016256 328.72806211 401.57016256 328.72806211 401.56976051 329.91667279 C401.5684554 333.8135384 401.56719171 337.71040402 401.56594861 341.60726964 C401.55559535 373.89484126 401.53799399 406.1824051 401.515625 438.4699707 C403.13774344 438.46926879 403.13774344 438.46926879 404.79263195 438.4685527 C441.82204085 438.4525525 478.85145001 438.43722101 515.88085938 438.42236328 C516.6268792 438.42206389 517.37289902 438.4217645 518.1415255 438.42145603 C598.09862133 438.38938611 678.05571725 438.36171894 758.01281738 438.34294128 C759.78944219 438.34252293 761.566067 438.34210458 763.3426918 438.34168622 C800.63680322 438.33291764 837.93091475 438.32476755 875.22502646 438.31733167 C893.95987157 438.31359557 912.69471665 438.30974065 931.42956171 438.30577338 C934.25559314 438.30517563 937.08162457 438.30458128 939.90765599 438.30398706 C983.41015959 438.29481014 1026.91266066 438.28308945 1070.41516113 438.26397705 C1071.35007559 438.26356635 1072.28499004 438.26315566 1073.24823524 438.26273252 C1088.32124593 438.25609563 1103.39425653 438.24924472 1118.46726712 438.24236538 C1161.89699298 438.22254728 1205.3267169 438.20431916 1248.75644684 438.19655132 C1249.65007906 438.19639072 1250.54371128 438.19623011 1251.46442327 438.19606464 C1271.08469924 438.19256685 1290.70497523 438.18988252 1310.32525141 438.18796775 C1318.22052182 438.18718292 1326.11579222 438.18628106 1334.01106262 438.18533897 C1334.87515028 438.18523869 1335.73923794 438.18513841 1336.62951007 438.18503509 C1364.44237035 438.18174911 1392.2552162 438.16894731 1420.06807066 438.15112408 C1448.09922415 438.13320471 1476.13036365 438.12467987 1504.16152301 438.12909874 C1508.04076076 438.12970793 1511.91999852 438.1302101 1515.7992363 438.13064766 C1516.55963496 438.1307373 1517.32003363 438.13082694 1518.10347468 438.1309193 C1530.11312268 438.13205843 1542.12274097 438.12313267 1554.13238088 438.10994112 C1565.96029963 438.09715821 1577.788177 438.09543475 1589.61609949 438.10447526 C1595.93573526 438.10899512 1602.25527236 438.10884887 1608.57489747 438.09532116 C1614.33732933 438.0830804 1620.09958657 438.08495741 1625.8620161 438.09755078 C1627.9210646 438.09967311 1629.98012639 438.09689161 1632.03915791 438.08826497 C1681.12943345 437.89582707 1726.52571789 452.81403091 1763.515625 485.4699707 C1764.65644531 486.44450195 1764.65644531 486.44450195 1765.8203125 487.4387207 C1785.13489697 503.97260624 1799.96619124 525.43097744 1810.515625 548.4699707 C1811.04671875 549.5940332 1811.5778125 550.7180957 1812.125 551.8762207 C1825.14712486 580.60544462 1827.83932703 610.87441508 1827.76730728 642.01629639 C1827.76939835 644.32992375 1827.77236438 646.64355046 1827.77611601 648.95717573 C1827.78386109 655.28330635 1827.77926694 661.60937543 1827.77256011 667.93550497 C1827.76699849 674.11729277 1827.77292014 680.29907591 1827.77751421 686.48086278 C1827.78667961 699.26656901 1827.78643114 712.05225928 1827.78095245 724.83796692 C1827.77543877 737.78445254 1827.77429822 750.73092768 1827.77842712 763.67741394 C1827.77868547 764.49688676 1827.77894381 765.31635957 1827.77920999 766.1606649 C1827.7802766 769.49856648 1827.78137402 772.83646805 1827.78251054 776.17436961 C1827.79307494 807.2236296 1827.79381292 838.27288255 1827.78821564 869.32214355 C1827.78805005 870.24115523 1827.78788446 871.1601669 1827.78771385 872.10702741 C1827.78754799 873.02751863 1827.78738213 873.94800984 1827.78721124 874.89639473 C1827.78216162 902.95815235 1827.78086361 931.01990706 1827.78325653 959.08166504 C1827.78341149 960.962 1827.7835658 962.84233497 1827.78371947 964.72266993 C1827.78434042 972.27926735 1827.78497776 979.83586476 1827.785639 987.39246218 C1827.78747287 1008.51528319 1827.78861418 1029.63810421 1827.78921127 1050.76092529 C1827.78923856 1051.72274769 1827.78926586 1052.68457008 1827.78929397 1053.6755386 C1827.79011233 1084.31585837 1827.78785978 1114.95617713 1827.78351212 1145.59649658 C1827.78330137 1147.08682424 1827.78330137 1147.08682424 1827.78308636 1148.60725952 C1827.78079656 1164.74112285 1827.77835759 1180.87498616 1827.77590602 1197.00884946 C1827.76619361 1260.9945906 1827.76664441 1324.98032336 1827.77636719 1388.96606445 C1827.77880964 1405.0918579 1827.78123177 1421.21765135 1827.78351212 1437.34344482 C1827.78372346 1438.83290187 1827.78372346 1438.83290187 1827.78393907 1440.35244895 C1827.78825249 1470.96130481 1827.79007979 1501.57015996 1827.78921127 1532.17901611 C1827.78917052 1533.62068554 1827.78917052 1533.62068554 1827.78912894 1535.0914796 C1827.78850394 1556.190972 1827.78723658 1577.29046432 1827.78539027 1598.38995665 C1827.78473201 1605.9397321 1827.78410584 1613.48950756 1827.78348885 1621.03928301 C1827.78333407 1622.91740973 1827.78317661 1624.79553645 1827.78301645 1626.67366317 C1827.78063085 1654.726748 1827.78265909 1682.77982957 1827.78771385 1710.83291399 C1827.78796223 1712.2114315 1827.78796223 1712.2114315 1827.78821564 1713.61779785 C1827.788381 1714.5351085 1827.78854637 1715.45241915 1827.78871674 1716.3975271 C1827.7942371 1747.35860724 1827.79219602 1778.31967896 1827.78165415 1809.2807579 C1827.78054948 1812.60801442 1827.77947607 1815.93527094 1827.77842712 1819.26252747 C1827.77816671 1820.07907318 1827.7779063 1820.8956189 1827.77763799 1821.73690842 C1827.77369908 1834.6463726 1827.77643342 1847.55582628 1827.78196514 1860.46528952 C1827.78726639 1873.17067463 1827.78537913 1885.87604208 1827.77593696 1898.58142497 C1827.77108186 1905.37279219 1827.76954886 1912.16411746 1827.77674893 1918.95548391 C1827.78324096 1925.14217167 1827.78041954 1931.32878484 1827.7703876 1937.51546723 C1827.76838482 1939.7314206 1827.76967481 1941.94738024 1827.77479948 1944.16332859 C1827.8507895 1979.55290684 1822.71273713 2013.05077429 1805.515625 2044.4699707 C1805.04898438 2045.40067383 1804.58234375 2046.33137695 1804.1015625 2047.2902832 C1792.61219022 2069.79870258 1774.40421212 2090.12432778 1754.515625 2105.4699707 C1753.51402344 2106.24985352 1752.51242187 2107.02973633 1751.48046875 2107.83325195 C1714.25585697 2136.02496311 1670.4637428 2144.98702426 1624.7193222 2144.84749413 C1622.08759214 2144.85063079 1619.45588771 2144.85495761 1616.82416445 2144.86070722 C1611.12670884 2144.87079374 1605.42933968 2144.86995917 1599.73188239 2144.86165659 C1591.20259729 2144.84928393 1582.67338116 2144.85444555 1574.14409434 2144.86280452 C1559.60136527 2144.8765522 1545.05866777 2144.87618012 1530.5159359 2144.86796188 C1515.79044137 2144.8596912 1501.0649676 2144.85798065 1486.33947182 2144.86417389 C1485.40737531 2144.86456141 1484.4752788 2144.86494892 1483.51493695 2144.86534819 C1479.71828987 2144.8669481 1475.92164282 2144.86859424 1472.12499578 2144.87029901 C1436.80889724 2144.88614541 1401.49281259 2144.88725268 1366.17671204 2144.87885666 C1365.13141946 2144.87860827 1364.08612688 2144.87835989 1363.00915876 2144.87810397 C1361.43869545 2144.87773079 1361.43869545 2144.87773079 1359.83650561 2144.87735007 C1327.91848314 2144.86977556 1296.00046641 2144.86782865 1264.08244324 2144.871418 C1261.94369155 2144.87165044 1259.80493985 2144.87188191 1257.66618816 2144.87211241 C1249.07107316 2144.87304384 1240.47595815 2144.87399984 1231.88084315 2144.8749917 C1207.85508923 2144.8777425 1183.8293353 2144.87945447 1159.80358124 2144.88035011 C1158.70957553 2144.88039105 1157.61556983 2144.88043199 1156.48841243 2144.88047417 C1121.6373165 2144.8817017 1086.78622256 2144.8783229 1051.93512726 2144.87180138 C1050.23999586 2144.87148526 1050.23999586 2144.87148526 1048.51061939 2144.87116275 C1030.15962193 2144.86772805 1011.80862451 2144.86406959 993.4576271 2144.86039223 C920.67893987 2144.84582362 847.90026919 2144.84649982 775.12158203 2144.86108398 C756.77976229 2144.86474766 738.43794254 2144.86838086 720.09612274 2144.87180138 C718.96669524 2144.87201272 717.83726775 2144.87222407 716.67361517 2144.87244181 C681.85829944 2144.87891197 647.04298508 2144.88165289 612.22766876 2144.88035011 C611.13447005 2144.88030936 610.04127133 2144.88026861 608.91494539 2144.88022662 C584.91572378 2144.87928912 560.91650232 2144.87738807 536.91728085 2144.8746186 C528.32992648 2144.87363121 519.7425721 2144.87269197 511.15521772 2144.87176647 C509.01897775 2144.87153431 506.88273779 2144.87129811 504.74649783 2144.87105788 C472.83835987 2144.86747951 440.93022839 2144.87052176 409.02209124 2144.87810397 C407.97679866 2144.87835236 406.93150608 2144.87860075 405.85453796 2144.87885666 C404.81118024 2144.87910471 403.76782251 2144.87935275 402.69284788 2144.87960832 C367.47702256 2144.88788894 332.2612139 2144.88482704 297.04539096 2144.86901443 C293.26085339 2144.86735743 289.47631579 2144.86574731 285.69177818 2144.86417389 C284.76301094 2144.86378327 283.83424369 2144.86339265 282.87733199 2144.86299019 C268.19398052 2144.85708195 253.51064984 2144.8611832 238.82730026 2144.86948091 C224.37587934 2144.87743302 209.92449335 2144.87460149 195.47307685 2144.86043864 C187.01035767 2144.85246039 178.54773445 2144.8525512 170.08501995 2144.86488343 C164.45064034 2144.872264 158.81633479 2144.86859247 153.18196406 2144.85628287 C149.99706533 2144.84962298 146.81239057 2144.84901782 143.6274944 2144.85873242 C92.89274503 2145.0024157 46.60829929 2131.66182738 8.01611328 2097.78686523 C6.61529502 2096.5574455 5.20449418 2095.33942605 3.79296875 2094.12231445 C-13.25363953 2079.18347845 -26.23882149 2060.58231419 -36.484375 2040.4699707 C-36.97260742 2039.53604492 -36.97260742 2039.53604492 -37.47070312 2038.58325195 C-46.36615078 2021.46090803 -51.5502201 2002.48189911 -54.484375 1983.4699707 C-54.73915793 1981.82031255 -54.73915793 1981.82031255 -54.99908799 1980.13732797 C-55.7243934 1974.23816408 -55.62580883 1968.33230956 -55.61859608 1962.39723492 C-55.62094831 1961.08112174 -55.62330054 1959.76500857 -55.62572405 1958.40901318 C-55.63210398 1954.75508007 -55.63228728 1951.10116901 -55.63144664 1947.4472314 C-55.63161653 1943.47223846 -55.63752706 1939.49725332 -55.6426875 1935.5222643 C-55.65200423 1927.6381411 -55.65593397 1919.75402351 -55.65820647 1911.86989549 C-55.66117086 1902.42656651 -55.66986951 1892.98324497 -55.67862075 1883.5399199 C-55.69945395 1860.7185299 -55.70993225 1837.89713861 -55.71875035 1815.07574132 C-55.72295752 1804.28116743 -55.72817934 1793.48659409 -55.73343488 1782.69202067 C-55.75132199 1745.74446346 -55.76631923 1708.7969061 -55.77375507 1671.84934521 C-55.77422983 1669.53033694 -55.77470572 1667.21132868 -55.77518274 1664.89232041 C-55.77541911 1663.74230271 -55.77565549 1662.59228501 -55.77589903 1661.40741828 C-55.77710023 1655.58085698 -55.77831568 1649.75429568 -55.77954102 1643.92773438 C-55.77990124 1642.19328964 -55.77990124 1642.19328964 -55.78026874 1640.42380562 C-55.78816526 1602.91673834 -55.81160594 1565.40970264 -55.84409696 1527.90264916 C-55.8783827 1488.25148319 -55.89810492 1448.60033571 -55.90139931 1408.94915468 C-55.90181686 1404.59788628 -55.90229642 1400.24661789 -55.90282249 1395.8953495 C-55.90294569 1394.82393839 -55.90306888 1393.75252727 -55.9031958 1392.64864915 C-55.90552908 1375.39726109 -55.92119582 1358.14590971 -55.94166434 1340.89453473 C-55.96190418 1323.56121909 -55.96740831 1306.22794756 -55.95789371 1288.89462229 C-55.95267203 1278.59442146 -55.9585878 1268.29436736 -55.98042838 1257.9941876 C-55.99391491 1251.11461038 -55.99287849 1244.23513439 -55.98002642 1237.3555562 C-55.97311562 1233.43533541 -55.97250841 1229.51539555 -55.98958651 1225.59519961 C-56.00501223 1222.02521069 -56.00184672 1218.45572801 -55.98417623 1214.8857539 C-55.97956617 1213.00451606 -55.99449323 1211.12326084 -56.01033601 1209.24208406 C-55.90808693 1196.68957628 -51.90610796 1186.13952221 -43.15625 1177.05200195 C-32.55752359 1167.08724844 -22.5297849 1164.15028726 -8.17304993 1164.20927429 C-7.17224512 1164.20544874 -6.17144031 1164.2016232 -5.14030808 1164.19768173 C-1.80613087 1164.18741118 1.52787221 1164.19133271 4.86206055 1164.1953125 C7.26116087 1164.19096244 9.66025981 1164.18577831 12.05935669 1164.17982483 C17.89088442 1164.16783606 23.72235854 1164.16528093 29.55389711 1164.16762509 C34.30321272 1164.16941356 39.05251443 1164.16764729 43.80182838 1164.16340065 C44.4797713 1164.16280546 45.15771421 1164.16221027 45.85620085 1164.16159705 C47.23391996 1164.16038516 48.61163906 1164.15917103 49.98935816 1164.15795467 C62.90004328 1164.14708791 75.81070227 1164.14923609 88.72138885 1164.15533952 C100.48476539 1164.16049415 112.24805875 1164.14929025 124.01141884 1164.1302413 C136.12781078 1164.11077347 148.24416356 1164.10262334 160.36057121 1164.10636455 C167.14749466 1164.10826488 173.9343476 1164.10590554 180.72125816 1164.09165001 C187.1178076 1164.07896394 193.51419264 1164.08111654 199.9107399 1164.0940609 C202.24132788 1164.09640389 204.57192781 1164.09377522 206.90250206 1164.08543777 C225.38266498 1164.02416573 243.92566101 1164.9652641 261.765625 1170.2199707 C263.11454834 1170.60403076 263.11454834 1170.60403076 264.49072266 1170.99584961 C289.6262324 1178.35420688 313.769429 1190.09948891 333.515625 1207.4699707 C334.32 1208.16477539 335.124375 1208.85958008 335.953125 1209.57543945 C374.48473694 1243.47584804 396.86419527 1288.30424366 401.515625 1339.4699707 C401.515625 1453.9799707 401.515625 1568.4899707 401.515625 1686.4699707 C720.955625 1686.4699707 1040.395625 1686.4699707 1369.515625 1686.4699707 C1369.515625 1425.7699707 1369.515625 1165.0699707 1369.515625 896.4699707 C1235.32228516 896.50477539 1235.32228516 896.50477539 1098.41796875 896.5402832 C1045.25048741 896.54988782 992.08300673 896.55936663 938.91552508 896.56630063 C937.24422032 896.56651938 935.57291556 896.56673822 933.90161081 896.56695715 C933.06360274 896.5670669 932.22559467 896.56717665 931.36219242 896.56728973 C901.75634918 896.5711727 872.15050595 896.57518644 842.54466276 896.57942921 C839.71900919 896.57983301 836.89335561 896.58023336 834.06770203 896.58063288 C790.81263059 896.58676153 747.55756028 896.59456096 704.30249023 896.6072998 C702.90779408 896.6077105 702.90779408 896.6077105 701.48492226 896.60812949 C686.49436159 896.6125541 671.50380097 896.61712137 656.51324036 896.62170758 C613.32231427 896.63491925 570.13138906 896.64707147 526.94046116 896.65225029 C526.05178694 896.65235736 525.16311271 896.65246443 524.24750897 896.65257474 C504.73632777 896.65490658 485.22514655 896.65669614 465.71396525 896.65797267 C457.86265552 896.65849589 450.0113458 896.65909714 442.16003609 896.65972519 C441.30075839 896.65979204 440.44148068 896.6598589 439.55616427 896.65992778 C411.89579821 896.66211862 384.23543861 896.67065377 356.57507516 896.68253512 C328.69877926 896.69448006 300.82248961 896.70016495 272.9461911 896.69721868 C269.08882604 896.69681255 265.23146098 896.69647777 261.37409592 896.69618607 C260.23992406 896.69609642 260.23992406 896.69609642 259.08283964 896.69600497 C247.13843494 896.69524541 235.19404351 896.70119738 223.24964241 896.70999043 C211.48744119 896.71851007 199.72525845 896.71966294 187.96305555 896.71363433 C181.67794927 896.71062005 175.39288709 896.71072295 169.10778558 896.71973707 C163.37787005 896.7278922 157.6480326 896.7266512 151.91811813 896.71825065 C149.86970788 896.71683473 147.82129172 896.71869455 145.77288904 896.72444119 C127.82448854 896.77155789 109.3734929 896.42175502 91.828125 892.2824707 C90.41781006 891.9599231 90.41781006 891.9599231 88.97900391 891.63085938 C57.69437986 884.17650493 30.88271237 869.14003264 6.515625 848.4699707 C5.6803125 847.77774414 4.845 847.08551758 3.984375 846.37231445 C-0.66534568 842.44687718 -4.56956043 838.11638083 -8.484375 833.4699707 C-9.30808594 832.54571289 -10.13179687 831.62145508 -10.98046875 830.66918945 C-29.89135365 809.28751855 -42.85532307 783.31390308 -50.296875 755.8449707 C-50.57096191 754.84651123 -50.57096191 754.84651123 -50.85058594 753.82788086 C-55.29684919 736.28527658 -55.92763404 719.05964604 -55.87597902 701.04339803 C-55.86918837 697.49833674 -55.87997521 693.95331745 -55.88837487 690.40826553 C-55.90067653 684.2130813 -55.90198255 678.01797289 -55.89582443 671.82278061 C-55.88669175 662.61031989 -55.89479838 653.39792865 -55.90611567 644.18547324 C-55.92573513 627.72906295 -55.92813935 611.27268424 -55.92292047 594.81626504 C-55.91835702 580.41904461 -55.91897036 566.02183665 -55.92476082 551.62461662 C-55.92551769 549.69076713 -55.92627367 547.75691764 -55.92702876 545.82306815 C-55.92817399 542.90873592 -55.92932387 539.99440369 -55.93048801 537.08007147 C-55.94118493 510.00485739 -55.94592616 482.92964745 -55.93801785 455.85443211 C-55.93772067 454.83484973 -55.9374235 453.81526735 -55.93711732 452.76478854 C-55.93466855 444.48582777 -55.93205689 436.20686706 -55.92943319 427.92790634 C-55.91932402 395.61386446 -55.92770214 363.2998745 -55.95092773 330.98583984 C-55.97699744 294.65625313 -55.98984975 258.32669767 -55.98273998 221.99710125 C-55.98202394 218.12427231 -55.98134955 214.25144337 -55.98069954 210.37861443 C-55.98052973 209.42506688 -55.98035992 208.47151933 -55.98018497 207.4890764 C-55.97788231 193.09722909 -55.985857 178.70541082 -55.99899101 164.31357002 C-56.01389539 147.95293715 -56.01475405 131.59237236 -55.9969201 115.23174096 C-55.9873529 106.07813458 -55.98880071 96.92468701 -56.00615479 87.77109122 C-56.0166402 81.65490463 -56.01254968 75.53883908 -55.99667475 69.42266442 C-55.98803956 65.93947083 -55.98562629 62.45658855 -56.00094407 58.97341091 C-56.01408043 55.21554593 -56.00255879 51.45852098 -55.98494625 47.70069218 C-55.99459676 46.6274404 -56.00424727 45.55418862 -56.01419023 44.44841406 C-55.88698982 31.22990011 -51.33480984 21.10091634 -42.484375 11.4699707 C-30.03588005 0.16241801 -15.87911871 -0.10983149 0 0 Z " fill="#FEFEFE" transform="translate(1990.484375,1328.530029296875)"/>
<path d="M0 0 C1.51611985 -0.00398776 1.51611985 -0.00398776 3.06286838 -0.00805608 C6.44425325 -0.01451575 9.82545213 -0.00675771 13.20683219 0.00094534 C15.67187133 -0.00078646 18.13690998 -0.00339561 20.60194738 -0.00680064 C25.98187655 -0.01220828 31.36175163 -0.01139128 36.74167601 -0.00512816 C44.81897598 0.00423252 52.89624477 0.00195816 60.97354744 -0.00252624 C74.80266772 -0.00986588 88.6317721 -0.00768887 102.46089176 -0.00042403 C116.55386349 0.00693832 130.64682611 0.00989009 144.73979967 0.00754454 C145.63295994 0.00739857 146.5261202 0.00725259 147.44634592 0.0071022 C152.00661334 0.0063372 156.56688074 0.00550199 161.12714814 0.00464281 C194.45075733 -0.00148486 227.77435987 0.00225263 261.09796818 0.01093138 C294.88126175 0.01969736 328.66455175 0.02409558 362.44784649 0.02312697 C364.04505889 0.0230841 364.04505889 0.0230841 365.67453821 0.02304036 C375.43256738 0.02277685 385.19059655 0.02246463 394.94862573 0.02209435 C419.4194619 0.02116808 443.89029806 0.02090312 468.36113425 0.02107681 C470.04328389 0.02108805 470.04328389 0.02108805 471.75941636 0.02109952 C527.06447945 0.02152804 582.36954119 0.02946544 637.67460354 0.03788222 C657.14726924 0.04084055 676.61993494 0.04376323 696.09260066 0.04655445 C697.3030643 0.04672799 698.51352794 0.04690152 699.7606723 0.04708031 C755.82084152 0.05507348 811.88101064 0.05793785 867.94118037 0.05948639 C871.60705637 0.05958791 875.27293236 0.05969185 878.93880836 0.0597964 C901.04392177 0.06042459 923.14903518 0.06099933 945.2541486 0.06151235 C1000.20873782 0.06279008 1055.163327 0.06470902 1110.11791619 0.06706274 C1111.36901924 0.06711601 1112.6201223 0.06716928 1113.90913757 0.06722416 C1194.94727663 0.07067959 1275.98541523 0.07677494 1357.02355393 0.08507956 C1358.31749479 0.08521214 1359.61143566 0.08534471 1360.94458685 0.08548131 C1400.33353957 0.08952272 1439.72249227 0.09375948 1479.11144496 0.09803445 C1522.70029579 0.10276437 1566.28914663 0.10746098 1609.87799748 0.11201323 C1611.84408477 0.11221873 1611.84408477 0.11221873 1613.849891 0.11242838 C1738.3294346 0.12542817 1862.80897834 0.13305019 1987.28852244 0.1392808 C1992.56077004 0.13954508 1997.83301764 0.13981093 2003.10526524 0.14007683 C2051.62147173 0.14252363 2100.13767822 0.1449073 2148.65388471 0.14721167 C2149.94396971 0.14727295 2151.2340547 0.14733423 2152.56323319 0.14739737 C2156.46926352 0.14758289 2160.37529386 0.1477684 2164.28132419 0.1479539 C2269.80584329 0.15296565 2375.33036236 0.15852805 2480.85488142 0.16444717 C2484.57814165 0.16465588 2488.30140189 0.16486416 2492.02466213 0.16507232 C2612.95698627 0.17183505 2733.88931029 0.1795896 3162.87329777 0.21760405 C3163.9202562 0.21770397 3164.96721463 0.21780389 3166.04589907 0.21790684 C3256.54987293 0.22654498 3347.05384678 0.23540445 3483.43701847 0.24934233 C3483.6043181 1.83254907 3483.76903653 3.41602868 3483.93268498 4.99961699 C3484.02469307 5.88138672 3484.11670117 6.76315645 3484.21149739 7.67164648 C3484.51726968 11.16660997 3484.49833603 14.61033712 3484.42139347 18.11652983 C3484.40616642 18.82528761 3484.39093937 19.53404539 3484.37525089 20.26428068 C3484.32168628 22.5513184 3484.25617687 24.83772548 3484.18701847 27.12434233 C3484.16401676 27.91557493 3484.14101505 28.70680754 3484.11731632 29.52201689 C3481.31013842 121.89556969 3446.36175759 210.93164002 3355.43701847 313.24934233 C3352.83034169 315.6589169 3350.15026607 317.96112076 3347.43701847 320.24934233 C3346.55401066 321.02149077 3345.67100285 321.7936392 3344.76123722 322.58918608 C3326.13171085 338.78612681 3305.82745935 352.9562642 3284.43701847 365.24934233 C3283.26453556 365.92585844 3283.26453556 365.92585844 3282.06836613 366.61604155 C3209.20554934 408.33872876 3131.74821373 417.4331921 3049.40321883 417.37417978 C3043.51393744 417.37108894 3037.62465813 417.37388126 3031.73537667 417.37588666 C3021.39263115 417.37861101 3011.04989071 417.37767323 3000.70714552 417.37422551 C2989.5613992 417.37053086 2978.41565578 417.36907298 2967.26990888 417.37024122 C2966.56081671 417.37031421 2965.85172454 417.3703872 2965.12114472 417.3704624 C2961.50004223 417.37084494 2957.87893974 417.37126254 2954.25783725 417.37169209 C2927.86694415 417.3747477 2901.47605315 417.37289655 2875.08516033 417.3685478 C2848.34698055 417.36415815 2821.60880191 417.36196649 2794.87062176 417.36245001 C2794.02651271 417.3624643 2793.18240366 417.36247859 2792.31271554 417.36249332 C2784.57673858 417.36262507 2776.84076161 417.36278119 2769.10478464 417.36296632 C2749.708681 417.36342933 2730.31257736 417.36356195 2710.91647371 417.36347509 C2710.02780113 417.36347134 2709.13912856 417.3634676 2708.22352652 417.36346374 C2664.44252633 417.36324969 2620.66152657 417.35928312 2576.88052662 417.35507239 C2561.47339082 417.35359316 2546.06625502 417.3521318 2530.65911921 417.35073627 C2529.70132459 417.3506495 2528.74352998 417.35056273 2527.75671128 417.35047334 C2483.36468152 417.34647375 2438.97265179 417.34504418 2394.58062188 417.3442703 C2391.67630286 417.34421954 2388.77198384 417.34416757 2385.86766482 417.34411529 C2368.35427345 417.34380119 2350.84088208 417.34351382 2333.32749071 417.34325732 C2289.79188756 417.34261853 2246.25628441 417.3416591 2202.72068127 417.34048212 C2201.7296406 417.34045549 2200.73859993 417.34042886 2199.71752772 417.34040142 C2135.54611763 417.33867428 2071.37470768 417.33562734 2007.20329769 417.33147372 C2006.17899334 417.33140743 2005.15468899 417.33134114 2004.09934511 417.33127284 C1972.91970196 417.32925221 1941.74005881 417.32713381 1910.56041566 417.32499627 C1876.05645368 417.32263127 1841.55249169 417.32028294 1807.0485297 417.31800688 C1805.49217847 417.31790413 1805.49217847 417.31790413 1803.90438581 417.31779931 C1705.33151536 417.3112971 1606.75864487 417.30748766 1508.18577427 417.3043731 C1504.00980341 417.30424095 1499.83383256 417.30410803 1495.6578617 417.30397508 C1457.22924991 417.30275166 1418.80063812 417.30155983 1380.37202634 417.30040766 C1378.83922934 417.3003617 1378.83922934 417.3003617 1377.27546674 417.30031481 C1374.18153514 417.30022205 1371.08760353 417.3001293 1367.99367192 417.30003655 C1284.412847 417.2975308 1200.83202208 417.2947496 1117.25119717 417.29178991 C1114.30230878 417.29168556 1111.3534204 417.29158142 1108.40453201 417.29147734 C1012.63649658 417.28809641 916.8684612 417.28421957 577.20996769 417.26521147 C576.38111507 417.26516151 575.55226245 417.26511155 574.69829308 417.26506008 C491.93877653 417.26007132 409.17926 417.25491506 323.43701847 417.24934233 C323.43714649 417.94574337 323.4372745 418.64214441 323.43740639 419.35964851 C323.44827055 478.50736864 323.45867898 537.65508885 323.46875675 596.80280913 C323.46895635 597.97402839 323.46915594 599.14524766 323.46936159 600.35195841 C323.48453848 689.46082708 323.49954683 778.56969596 323.52149648 974.80125096 C323.52170493 976.89020434 323.5219138 978.97915773 323.52212281 981.06811112 C323.52804492 1040.26363473 323.53357859 1099.45915837 323.53859233 1158.65468207 C323.53877791 1160.84574798 323.53896351 1163.0368139 323.53914913 1165.22787981 C323.53921043 1165.95155041 323.53927173 1166.67522101 323.53933489 1167.42082101 C323.54164091 1194.63115653 323.54403565 1221.84149204 323.54648336 1249.05182755 C323.54674921 1252.00822723 323.54701406 1254.96462692 323.54727798 1257.9210266 C323.5535068 1327.68500673 323.56132769 1397.44898615 323.57434757 1467.21296538 C323.57448444 1467.94694996 323.57462131 1468.68093454 323.57476233 1469.43716108 C323.57931621 1493.84458459 323.58402509 1518.25200806 323.58875535 1542.65943154 C323.59302892 1564.7128148 323.59724681 1586.76619808 323.60128124 1608.8195814 C323.60141381 1609.5440839 323.60154637 1610.2685864 323.60168295 1611.01504353 C323.6099737 1656.40643294 323.6158517 1701.79782218 323.61929806 1747.18921221 C323.61935163 1747.89054859 323.61940519 1748.59188497 323.61946039 1749.31447397 C323.62181134 1780.1195489 323.62365985 1810.92462383 323.62493427 1841.72969883 C323.62544935 1854.12400667 323.62603882 1866.51831452 323.62666902 1878.91262236 C323.62677289 1880.96764276 323.62687435 1883.02266315 323.62697555 1885.07768355 C323.62853986 1916.49377908 323.63175815 1947.90987332 323.63980635 1979.32596792 C323.63997975 1980.00293031 323.64015315 1980.6798927 323.6403318 1981.37736911 C323.64313117 1992.26652869 323.64606912 2003.15568823 323.64903099 2014.04484776 C323.66118199 2058.71763594 323.66725996 2103.39042092 323.66426645 2148.06321097 C323.66386031 2154.14747028 323.66352553 2160.23172959 323.66323384 2166.31598891 C323.66317407 2167.50864383 323.66311431 2168.70129876 323.66305274 2169.93009475 C323.66229238 2188.79097948 323.66825216 2207.65185583 323.6770382 2226.51273828 C323.68554564 2245.07361482 323.68688532 2263.63448052 323.6806821 2282.19535809 C323.67726266 2293.06720213 323.67926389 2303.93901172 323.68945248 2314.81085171 C323.69568181 2322.04714791 323.69454409 2329.28341969 323.68762062 2336.51971517 C323.68390621 2340.61163354 323.68311781 2344.7034853 323.69148896 2348.79539831 C323.78234722 2396.34733956 318.81526052 2442.7182425 304.43701847 2488.24934233 C304.18984074 2489.04839995 303.942663 2489.84745756 303.68799504 2490.67072905 C288.25346134 2540.39364042 261.81623936 2586.46862703 228.43701847 2626.24934233 C227.66358097 2627.20840483 226.89014347 2628.16746733 226.09326847 2629.15559233 C219.18228042 2637.60235551 211.56720256 2645.3349522 203.87451847 2653.06184233 C203.34398869 2653.59754851 202.8134589 2654.13325468 202.26685246 2654.68519438 C195.32371862 2661.68164214 188.15607756 2668.10109085 180.43701847 2674.24934233 C179.33520836 2675.18414313 178.23888053 2676.12550658 177.15186222 2677.07746733 C122.56223496 2724.68023653 50.77304732 2753.59854537 -20.56298153 2763.24934233 C-22.05135087 2763.46357494 -23.53963991 2763.67836669 -25.02782528 2763.89387358 C-40.29919404 2766.03451342 -55.54651657 2766.3404346 -70.93798153 2766.37434233 C-71.62166805 2766.37702116 -72.30535457 2766.3797 -73.00975887 2766.38246001 C-75.01447008 2766.38841638 -77.01920152 2766.38535175 -79.02391903 2766.38215483 C-80.1871368 2766.3810269 -81.35035457 2766.37989897 -82.54882137 2766.37873686 C-85.98506885 2766.31670718 -89.39008576 2766.03420491 -92.81386654 2765.74125517 C-93.89139501 2765.64961026 -94.96892349 2765.55796534 -96.07910435 2765.4635433 C-97.30862355 2765.35751382 -97.30862355 2765.35751382 -98.56298153 2765.24934233 C-98.5849841 2683.43114593 -98.60606253 2601.6129493 -98.62645809 2519.79475249 C-98.62665772 2518.99413414 -98.62685736 2518.1935158 -98.62706304 2517.36863629 C-98.64854534 2431.20685786 -98.6691411 2345.0450792 -98.73193754 2003.21229614 C-98.73235444 2000.35837083 -98.73277218 1997.50444553 -98.73319021 1994.65052022 C-98.74503374 1913.78227812 -98.75610112 1832.91403594 -98.76612924 1752.0457936 C-98.7665004 1749.05272263 -98.7668716 1746.05965166 -98.76724285 1743.0665807 C-98.76736545 1742.07802191 -98.76748805 1741.08946311 -98.76761437 1740.070948 C-98.7722265 1702.89985847 -98.77701597 1665.72876897 -98.78191129 1628.55767949 C-98.782443 1624.51898049 -98.7829727 1620.4802815 -98.78350055 1616.44158251 C-98.79596213 1521.10798998 -98.81161175 1425.77439951 -98.83763973 1330.44080961 C-98.83791347 1329.4373553 -98.83818721 1328.43390099 -98.83846924 1327.40003897 C-98.84757733 1294.03063293 -98.85699497 1260.66122699 -98.86645529 1227.29182105 C-98.87500212 1197.14124096 -98.8834378 1166.99066085 -98.89150707 1136.84008063 C-98.8917722 1135.84961697 -98.89203732 1134.85915332 -98.89231048 1133.83867562 C-98.90888501 1071.81060919 -98.92064507 1009.78254326 -98.9275407 947.754475 C-98.92764784 946.79648858 -98.92775497 945.83850216 -98.92786535 944.85148584 C-98.93256663 902.77917154 -98.93626392 860.70685721 -98.93881313 818.63454273 C-98.93984333 801.70858545 -98.94102226 784.78262818 -98.94228262 767.85667092 C-98.94249036 765.05021891 -98.94269328 762.24376689 -98.94289568 759.43731488 C-98.94602644 716.50441229 -98.95247613 673.57151346 -98.96855728 630.63861359 C-98.96890408 629.71260708 -98.96925088 628.78660058 -98.96960818 627.83253327 C-98.97520732 612.93622511 -98.98108308 598.03991706 -98.98700656 583.14360902 C-99.00382219 540.85553994 -99.01877482 498.56747478 -99.01951258 456.27940191 C-99.01952847 455.42135833 -99.01954437 454.56331476 -99.01956075 453.67926986 C-99.01986793 434.9595093 -99.01908293 416.23974895 -99.01722911 397.51998848 C-99.01650739 390.05397393 -99.01593528 382.58795936 -99.01541225 375.12194479 C-99.01535131 374.30752614 -99.01529037 373.49310748 -99.01522758 372.65400947 C-99.01336648 346.82274619 -99.02382659 320.99150756 -99.04141644 295.16025074 C-99.05868782 269.72367203 -99.06383738 244.28712385 -99.05134216 218.85054129 C-99.04963218 215.36536863 -99.04806245 211.88019592 -99.04657711 208.39502316 C-99.04628099 207.71274029 -99.04598488 207.03045742 -99.04567979 206.32749931 C-99.04111887 194.92685612 -99.05231162 183.52628555 -99.06784953 172.12565168 C-99.08021574 162.25381804 -99.07812903 152.38205643 -99.06418582 142.51022504 C-99.05668459 136.91031 -99.05540559 131.31059075 -99.07192251 125.71069064 C-99.08681103 120.62338019 -99.08307344 115.53642628 -99.06488658 110.44912965 C-99.06156664 108.63087748 -99.06482665 106.81259707 -99.07579508 104.99437495 C-99.24035688 75.77164576 -89.74872314 49.88997441 -69.31298153 28.56184233 C-50.77080835 10.66260165 -25.83856847 -0.13845695 0 0 Z " fill="#FEFEFE" transform="translate(333.5629815272987,706.7506576701999)"/>
<path d="M0 0 C0.73911621 0.48581543 1.47823242 0.97163086 2.23974609 1.47216797 C12.87209664 8.50914229 23.17956883 15.86556432 33 24 C33.58668457 24.4837207 34.17336914 24.96744141 34.77783203 25.46582031 C49.09843465 37.3541875 62.57399604 50.28281012 74 65 C74.92397097 66.12625848 75.85127752 67.24978572 76.78125 68.37109375 C84.56119923 77.8039492 91.45484958 87.67651275 98 98 C98.41958984 98.65597168 98.83917969 99.31194336 99.27148438 99.98779297 C129.88946932 148.31835615 145.26324557 205.50987429 145.1875 262.5 C145.18659363 263.76206268 145.18659363 263.76206268 145.18566895 265.04962158 C145.16083255 277.80311129 144.81914248 290.35858624 143 303 C142.87641113 303.90685547 142.75282227 304.81371094 142.62548828 305.74804688 C134.54730125 363.75432563 109.59693718 423.40726881 69.23046875 466.59375 C67.35754756 468.61427443 65.5529348 470.66833166 63.75390625 472.75390625 C54.14134678 483.77158555 43.58790468 494.08505891 32 503 C30.64057788 504.08555214 29.2826295 505.1729512 27.92578125 506.26171875 C-36.08776997 557.30625446 -118.36207995 579.88741903 -199.57861328 571.40673828 C-256.73233959 564.61223935 -309.43401638 542.96032149 -355 508 C-355.93070313 507.28714844 -356.86140625 506.57429688 -357.8203125 505.83984375 C-363.45388665 501.42899068 -368.71529248 496.68366782 -373.9453125 491.80859375 C-376.21974738 489.69169878 -378.55335033 487.65744923 -380.91015625 485.6328125 C-384.94924443 482.11034074 -388.66204244 478.35793021 -392.3125 474.4375 C-392.96202637 473.74060059 -393.61155273 473.04370117 -394.28076172 472.32568359 C-400.25855144 465.83807991 -405.74076398 459.07708659 -411 452 C-411.52335938 451.30116699 -412.04671875 450.60233398 -412.5859375 449.88232422 C-419.56328895 440.53210002 -426.13259559 431.07002659 -431.90087891 420.92480469 C-433.0451699 418.9208975 -434.21538531 416.9335155 -435.38671875 414.9453125 C-459.9877394 372.61658541 -473.11952469 323.56682911 -474.625 274.75 C-474.64679321 274.04513458 -474.66858643 273.34026917 -474.69104004 272.61404419 C-476.73463253 203.45133287 -456.355863 131.66938943 -413 77 C-412.14018971 75.87632727 -411.28220503 74.75125594 -410.42578125 73.625 C-404.86991136 66.36755743 -398.9887451 59.55431461 -392.71875 52.90625 C-390.49225344 50.52620195 -388.35426882 48.11186315 -386.25 45.625 C-383.49932632 42.45317054 -380.5403103 39.73448628 -377.3359375 37.02734375 C-375.03242515 35.02814156 -372.82454968 32.94543174 -370.61621094 30.84228516 C-350.15354505 11.47384642 -325.39196027 -3.96228754 -300 -16 C-299.25685547 -16.35562012 -298.51371094 -16.71124023 -297.74804688 -17.07763672 C-275.30841315 -27.74635427 -252.17857111 -35.35395025 -228 -41 C-227.25556641 -41.17756836 -226.51113281 -41.35513672 -225.74414062 -41.53808594 C-151.1649252 -58.92992905 -63.56076352 -41.8912122 0 0 Z " fill="#FEFEFE" transform="translate(1430,1743)"/>
<path d="M0 0 C0.66 0.33 1.32 0.66 2 1 C-6.58 9.58 -15.16 18.16 -24 27 C-24.66 26.67 -25.32 26.34 -26 26 C-17.33333333 17.33333333 -8.66666667 8.66666667 0 0 Z " fill="#BBBBBB" transform="translate(1061,1772)"/>
<path d="M0 0 C0.66 0.33 1.32 0.66 2 1 C-1.63 4.63 -5.26 8.26 -9 12 C-9 8.00102358 -7.64683965 6.93298448 -5 4 C-3.36643049 2.62631655 -1.7074998 1.28062485 0 0 Z " fill="#ADADAD" transform="translate(1953,1336)"/>
</svg>
